<svg width="640" height="180" viewBox="0 0 640 180" fill="none" xmlns="http://www.w3.org/2000/svg" role="img" aria-labelledby="title desc">
  <title id="title">Dinheiro Exato - Light</title>
  <desc id="desc">Versao para tema claro.</desc>
  <defs>
    <linearGradient id="deAccentLight" x1="0" y1="0" x2="1" y2="1">
      <stop stop-color="#2BBF64"/>
      <stop offset="1" stop-color="#0E9F4A"/>
    </linearGradient>
  </defs>

  <g transform="translate(34 34)">
    <rect x="8" y="66" width="22" height="34" rx="6" fill="#9FB0CF"/>
    <rect x="40" y="52" width="22" height="48" rx="6" fill="#6F86B3"/>
    <rect x="72" y="36" width="22" height="64" rx="6" fill="url(#deAccentLight)"/>
    <path d="M10 44L36 30L56 34L90 10" stroke="url(#deAccentLight)" stroke-width="8" stroke-linecap="round" stroke-linejoin="round"/>
    <path d="M78 10H90V22" stroke="url(#deAccentLight)" stroke-width="8" stroke-linecap="round" stroke-linejoin="round"/>
    <circle cx="18" cy="18" r="12" fill="#1742B8"/>
    <path d="M18 9V27M22.5 12.5C22.5 10.6 20.5 9 18 9C15.5 9 13.5 10.6 13.5 12.8C13.5 15 15.3 16.2 18 16.9C20.7 17.6 22.5 18.8 22.5 21C22.5 23.4 20.5 25 18 25C15.5 25 13.5 23.4 13.5 21.2" stroke="white" stroke-width="2.5" stroke-linecap="round" stroke-linejoin="round"/>
  </g>

  <g fill="#0F1A33">
    <text x="190" y="88" font-family="Inter, Segoe UI, Arial, sans-serif" font-size="44" font-weight="800" letter-spacing="0.3">Dinheiro</text>
    <text x="190" y="132" font-family="Inter, Segoe UI, Arial, sans-serif" font-size="44" font-weight="800" letter-spacing="0.3">Exato</text>
  </g>
</svg>
