<svg width="560" height="180" viewBox="0 0 560 180" fill="none" xmlns="http://www.w3.org/2000/svg" role="img" aria-labelledby="title desc">
  <title id="title">Din. Ex. - Dark</title>
  <desc id="desc">Versao abreviada para tema escuro.</desc>
  <defs>
    <linearGradient id="dinexAccentDark" x1="0" y1="0" x2="1" y2="1">
      <stop stop-color="#9AF5B3"/>
      <stop offset="1" stop-color="#4FDC81"/>
    </linearGradient>
  </defs>

  <g transform="translate(34 34)">
    <rect x="8" y="66" width="22" height="34" rx="6" fill="#F2F6FF"/>
    <rect x="40" y="52" width="22" height="48" rx="6" fill="#E5EDFF"/>
    <rect x="72" y="36" width="22" height="64" rx="6" fill="url(#dinexAccentDark)"/>
    <path d="M10 44L36 30L56 34L90 10" stroke="url(#dinexAccentDark)" stroke-width="8" stroke-linecap="round" stroke-linejoin="round"/>
    <path d="M78 10H90V22" stroke="url(#dinexAccentDark)" stroke-width="8" stroke-linecap="round" stroke-linejoin="round"/>
    <circle cx="18" cy="18" r="12" fill="#7FA2FF"/>
    <path d="M18 9V27M22.5 12.5C22.5 10.6 20.5 9 18 9C15.5 9 13.5 10.6 13.5 12.8C13.5 15 15.3 16.2 18 16.9C20.7 17.6 22.5 18.8 22.5 21C22.5 23.4 20.5 25 18 25C15.5 25 13.5 23.4 13.5 21.2" stroke="#13264F" stroke-width="2.5" stroke-linecap="round" stroke-linejoin="round"/>
  </g>

  <g fill="#ECF3FF">
    <text x="190" y="98" font-family="Inter, Segoe UI, Arial, sans-serif" font-size="52" font-weight="800" letter-spacing="0.3">Din. Ex.</text>
    <text x="192" y="130" font-family="Inter, Segoe UI, Arial, sans-serif" font-size="18" font-weight="600" fill="#BFD1FF">Dinheiro Exato</text>
  </g>
</svg>
