<svg width="560" height="180" viewBox="0 0 560 180" fill="none" xmlns="http://www.w3.org/2000/svg" role="img" aria-labelledby="title desc">
  <title id="title">Din. Ex. - Dark</title>
  <desc id="desc">Versao abreviada para tema escuro.</desc>
  <defs>
    <linearGradient id="dinexAccentDark" x1="0" y1="0" x2="1" y2="1">
      <stop stop-color="#9AF5B3"/>
      <stop offset="1" stop-color="#4FDC81"/>
    </linearGradient>
  </defs>

  <g transform="translate(34 34)">
    <rect x="8" y="66" width="22" height="34" rx="6" fill="#F2F6FF"/>
    <rect x="40" y="52" width="22" height="48" rx="6" fill="#E5EDFF"/>
    <rect x="72" y="36" width="22" height="64" rx="6" fill="url(#dinexAccentDark)"/>
    <path d="M10 44L36 30L56 34L90 10" stroke="url(#dinexAccentDark)" stroke-width="8" stroke-linecap="round" stroke-linejoin="round"/>
    <path d="M78 10H90V22" stroke="url(#dinexAccentDark)" stroke-width="8" stroke-linecap="round" stroke-linejoin="round"/>
    <circle cx="18" cy="18" r="12" fill="#7FA2FF"/>
    <path d="M18 10V26M12 14C12 11.8 14 10 18 10C22 10 24 11.8 24 14C24 16.2 22 18 18 18C14 18 12 19.8 12 22C12 24.2 14 26 18 26C22 26 24 24.2 24 22" stroke="#13264F" stroke-width="2.5" stroke-linecap="round"/>
  </g>

  <g fill="#ECF3FF">
    <text x="190" y="98" font-family="Inter, Segoe UI, Arial, sans-serif" font-size="52" font-weight="800" letter-spacing="0.3">Din. Ex.</text>
    <text x="192" y="130" font-family="Inter, Segoe UI, Arial, sans-serif" font-size="18" font-weight="600" fill="#BFD1FF">Dinheiro Exato</text>
  </g>
</svg>
